<svg width="100" height="100" viewBox="0 0 100 100" xmlns="http://www.w3.org/2000/svg">
  <!-- Background circle -->
  <circle cx="50" cy="50" r="45" fill="#1a73e8" opacity="0.1"/>
  
  <!-- Project folder -->
  <path d="M30,30 L30,60 L45,60 L50,55 L65,55 L65,30 Z" fill="#4285F4"/>
  <path d="M30,30 L50,30 L50,25 L45,25 L30,30 Z" fill="#3367D6"/>
  
  <!-- File icons inside folder -->
  <rect x="35" y="35" width="20" height="4" fill="#34A853" rx="1"/>
  <rect x="35" y="42" width="20" height="4" fill="#FBBC05" rx="1"/>
  <rect x="35" y="49" width="20" height="4" fill="#EA4335" rx="1"/>
  
  <!-- Tree structure -->
  <path d="M50,35 L50,25" stroke="#5F6368" stroke-width="2"/>
  <path d="M40,25 L60,25" stroke="#5F6368" stroke-width="2"/>
  <circle cx="40" cy="25" r="3" fill="#34A853"/>
  <circle cx="50" cy="25" r="3" fill="#FBBC05"/>
  <circle cx="60" cy="25" r="3" fill="#EA4335"/>
  
  <!-- Arrow showing transformation -->
  <path d="M60,50 L75,50 L75,65" stroke="#1a73e8" stroke-width="3" fill="none" stroke-linecap="round"/>
  <path d="M70,57 L75,65 L80,57" fill="#1a73e8"/>
  
  <!-- Generated markdown document -->
  <rect x="75" y="35" width="20" height="30" fill="#F1F3F4" rx="2"/>
  <rect x="80" y="40" width="10" height="2" fill="#5F6368" rx="1"/>
  <rect x="80" y="45" width="10" height="2" fill="#5F6368" rx="1"/>
  <rect x="80" y="50" width="8" height="2" fill="#5F6368" rx="1"/>
  <rect x="80" y="55" width="10" height="2" fill="#5F6368" rx="1"/>
  
  <!-- App initials -->
  <text x="50" y="85" font-family="Arial, sans-serif" font-size="14" font-weight="bold" text-anchor="middle" fill="#1a73e8">CM</text>
</svg>